<svg width="20" height="20" viewBox="0 0 20 20" fill="none" xmlns="http://www.w3.org/2000/svg">
<path d="M17.5 5.96826C17.5 5.09909 17.5 4.66409 17.2642 4.33659C17.0283 4.00909 16.6158 3.87159 15.7908 3.59659L14.82 3.27326C13.6808 2.89326 13.1117 2.70326 12.5375 2.78076C11.9642 2.85742 11.4642 3.18992 10.465 3.85576L9.31333 4.62409C8.53333 5.14409 8.14333 5.40409 7.705 5.50742C7.54454 5.54573 7.38069 5.56806 7.21583 5.57409C6.76583 5.58909 6.32167 5.44076 5.4325 5.14409C4.2675 4.75576 3.685 4.56159 3.24167 4.75909C3.08456 4.82899 2.94357 4.93055 2.8275 5.05742C2.5 5.41659 2.5 6.02992 2.5 7.25825V10.6458M17.5 9.16659V12.7416C17.5 13.9699 17.5 14.5841 17.1725 14.9416C17.0566 15.0691 16.9156 15.1712 16.7583 15.2416C16.315 15.4383 15.7325 15.2441 14.5675 14.8558C13.6783 14.5591 13.2342 14.4108 12.7842 14.4266C12.6191 14.432 12.455 14.4538 12.2942 14.4916C11.8567 14.5958 11.4667 14.8558 10.6867 15.3749L9.535 16.1433C8.535 16.8099 8.03583 17.1433 7.4625 17.2191C6.88917 17.2966 6.31917 17.1066 5.18 16.7266L4.20917 16.4033C3.38417 16.1283 2.97167 15.9908 2.73583 15.6633C2.5125 15.3533 2.50083 14.9466 2.5 14.1666M12.5 2.91659V5.83326M12.5 14.1666V9.16659M7.5 17.0833V14.1666M7.5 5.83326V10.8333" stroke="black" stroke-width="1.25" stroke-linecap="round"/>
</svg>
