<svg width="20" height="20" viewBox="0 0 20 20" fill="none" xmlns="http://www.w3.org/2000/svg">
<path fill-rule="evenodd" clip-rule="evenodd" d="M9.99999 2.29175C7.95561 2.29175 5.99497 3.10387 4.54938 4.54947C3.10378 5.99506 2.29166 7.9557 2.29166 10.0001C2.29166 12.0445 3.10378 14.0051 4.54938 15.4507C5.99497 16.8963 7.95561 17.7084 9.99999 17.7084C12.0444 17.7084 14.005 16.8963 15.4506 15.4507C16.8962 14.0051 17.7083 12.0445 17.7083 10.0001C17.7083 7.9557 16.8962 5.99506 15.4506 4.54947C14.005 3.10387 12.0444 2.29175 9.99999 2.29175ZM1.04166 10.0001C1.04166 5.05258 5.05249 1.04175 9.99999 1.04175C14.9475 1.04175 18.9583 5.05258 18.9583 10.0001C18.9583 14.9476 14.9475 18.9584 9.99999 18.9584C5.05249 18.9584 1.04166 14.9476 1.04166 10.0001ZM11.5408 7.65091C11.0367 7.78425 10.3575 8.05508 9.37832 8.44675C8.92749 8.62758 8.84332 8.67008 8.78166 8.72425C8.76128 8.74245 8.74181 8.76164 8.72332 8.78175C8.66999 8.84341 8.62749 8.92758 8.44666 9.37841C8.05499 10.3576 7.78499 11.0367 7.65082 11.5409C7.51166 12.0659 7.57999 12.1992 7.60166 12.2326C7.64703 12.297 7.70345 12.3529 7.76832 12.3976C7.79999 12.4201 7.93416 12.4876 8.45916 12.3484C8.96332 12.2151 9.64249 11.9451 10.6208 11.5534C11.0725 11.3726 11.1567 11.3301 11.2183 11.2759C11.2387 11.2574 11.2582 11.238 11.2767 11.2176L11.7458 11.6301L11.2758 11.2184C11.33 11.1567 11.3725 11.0726 11.5533 10.6209C11.945 9.64258 12.215 8.96258 12.3483 8.45925C12.4883 7.93425 12.42 7.80008 12.3983 7.76758C12.353 7.70287 12.2966 7.64672 12.2317 7.60175C12.2 7.58008 12.065 7.51175 11.54 7.65175M11.22 6.44341C11.795 6.29091 12.4167 6.21758 12.9342 6.56841C13.1292 6.70175 13.2983 6.87008 13.4308 7.06591C13.7825 7.58341 13.7083 8.20508 13.5558 8.78008C13.4008 9.36675 13.1008 10.1176 12.73 11.0442L12.7133 11.0859L12.685 11.1559C12.5492 11.4976 12.4283 11.7992 12.215 12.0434C12.1615 12.1054 12.1036 12.1633 12.0417 12.2167C11.7975 12.4301 11.4958 12.5501 11.1542 12.6867L11.085 12.7142L10.8525 12.1342L11.085 12.7151L11.0433 12.7317C10.1158 13.1026 9.36499 13.4026 8.77832 13.5576C8.20332 13.7101 7.58166 13.7842 7.06416 13.4326C6.86942 13.299 6.70104 13.1307 6.56749 12.9359C6.21582 12.4184 6.28916 11.7959 6.44249 11.2217C6.59749 10.6342 6.89749 9.88425 7.26832 8.95758L7.28499 8.91592L7.31332 8.84508C7.44916 8.50341 7.56916 8.20258 7.78332 7.95841C7.83721 7.8973 7.89499 7.83953 7.95666 7.78508C8.20082 7.57091 8.50249 7.45091 8.84332 7.31508L8.91332 7.28675L8.95499 7.27008C9.88249 6.89925 10.6325 6.59925 11.22 6.44341Z" fill="black"/>
</svg>
