<svg width="20" height="20" viewBox="0 0 20 20" fill="none" xmlns="http://www.w3.org/2000/svg">
<path d="M9.415 1.82907C9.74385 1.70603 10.1032 1.68999 10.4417 1.78324L10.585 1.82907L16.4183 4.01657C16.7141 4.12748 16.9723 4.32016 17.1627 4.57216C17.3532 4.82415 17.4682 5.12509 17.4942 5.4399L17.5 5.5774V10.0466C17.5 11.3969 17.1354 12.7222 16.4447 13.8826C15.754 15.0429 14.7628 15.9953 13.5758 16.6391L13.3542 16.7549L10.5592 18.1524C10.4053 18.2292 10.2372 18.2735 10.0654 18.2824C9.89361 18.2913 9.72184 18.2646 9.56083 18.2041L9.44083 18.1524L6.64583 16.7549C5.43801 16.151 4.41565 15.2321 3.68667 14.0954C2.95769 12.9587 2.54915 11.6462 2.50417 10.2966L2.5 10.0466V5.5774C2.5 5.26168 2.58969 4.95245 2.75861 4.68571C2.92753 4.41898 3.16875 4.20571 3.45417 4.07074L3.58167 4.01657L9.415 1.82907ZM10 3.3899L4.16667 5.5774V10.0466C4.16669 11.0924 4.44788 12.119 4.9808 13.0189C5.51371 13.9188 6.27876 14.6588 7.19583 15.1616L7.39167 15.2641L10 16.5682L12.6083 15.2641C13.5439 14.7964 14.3366 14.0857 14.9032 13.2065C15.4699 12.3272 15.7897 11.3118 15.8292 10.2666L15.8333 10.0466V5.5774L10 3.3899ZM9.28583 6.79324C9.39514 6.61073 9.57011 6.47694 9.77489 6.41928C9.97967 6.36162 10.1987 6.38446 10.3872 6.48313C10.5757 6.58179 10.7193 6.74879 10.7886 6.94992C10.8579 7.15105 10.8477 7.37108 10.76 7.5649L10.7142 7.65074L9.80583 9.1674H11.6517C12.2733 9.1674 12.6692 9.81074 12.4183 10.3566L12.3733 10.4416L10.715 13.2066C10.6066 13.391 10.4315 13.5268 10.2258 13.5857C10.0202 13.6445 9.79971 13.6221 9.61015 13.5229C9.42059 13.4237 9.27643 13.2555 9.20752 13.0529C9.13862 12.8504 9.15025 12.6291 9.24 12.4349L9.28583 12.3491L10.1942 10.8332H8.34833C8.20757 10.8333 8.06905 10.798 7.94545 10.7306C7.82185 10.6632 7.71713 10.5659 7.64085 10.4476C7.56458 10.3293 7.51919 10.1938 7.50885 10.0534C7.49852 9.91301 7.52355 9.77228 7.58167 9.64407L7.62667 9.55824L9.28583 6.79324Z" fill="black"/>
</svg>
