<svg width="20" height="20" viewBox="0 0 20 20" fill="none" xmlns="http://www.w3.org/2000/svg">
<path d="M16.9466 2.68403L3.22746 7.2582C3.17129 7.27688 3.12213 7.31221 3.08652 7.35949C3.0509 7.40678 3.03052 7.46378 3.02808 7.52293C3.02564 7.58208 3.04125 7.64057 3.07285 7.69063C3.10444 7.74069 3.15052 7.77995 3.20496 7.8032L8.24663 9.96403C8.27305 9.97547 8.30198 9.97987 8.3306 9.9768C8.35922 9.97373 8.38657 9.9633 8.40996 9.94653L13.3525 6.41486C13.5058 6.30653 13.6941 6.49486 13.5858 6.6482L10.0541 11.5907C10.0376 11.6141 10.0274 11.6413 10.0245 11.6698C10.0216 11.6982 10.0261 11.727 10.0375 11.7532L12.1975 16.7949C12.2206 16.8493 12.2598 16.8955 12.3098 16.9271C12.3598 16.9588 12.4183 16.9745 12.4774 16.9721C12.5366 16.9698 12.5936 16.9495 12.6409 16.914C12.6883 16.8784 12.7237 16.8293 12.7425 16.7732L17.3166 3.0532C17.3338 3.00177 17.3364 2.94657 17.324 2.89378C17.3115 2.841 17.2846 2.79272 17.2463 2.75437C17.2079 2.71603 17.1597 2.68913 17.1069 2.67671C17.0541 2.66428 16.9981 2.66682 16.9466 2.68403Z" fill="#1F1F2D"/>
</svg>
